# xmcd
#
# Track frame offsets: 
#        150
#        19796
#        37751
#        57437
#        74555
#        94207
#        109902
#        127114
#        149172
#        163832
#        189945
#        215200
#        237723
#        255980
#
# Disc length: 3572 seconds
#
# Revision: 0
# Processed by: cddbd v1.5.2PL0 Copyright (c) Steve Scherf et al.
# Submitted via: ExactAudioCopy v0.99pb5
#
DISCID=db0df20e
DTITLE=Van Morrison - Down the Road
DYEAR=2002
DGENRE=Blues
TTITLE0=Down the Road
TTITLE1=Meet me in the Indian Summer
TTITLE2=Steal my Heart Away
TTITLE3=Hey Mr. Dejay
TTITLE4=Talk is Cheap
TTITLE5=Choppin' Wood
TTITLE6=Waht makes the Irish Heart Beat
TTITLE7=All Work and No Play
TTITLE8=Whatever happened to  PJ Proby
TTITLE9=The Beauty of th Days Gone by
TTITLE10=Georgia on my Mind
TTITLE11=Only a Dream
TTITLE12=Evening Shadows
TTITLE13=Fast Train
EXTD=
EXTT0=
EXTT1=
EXTT2=
EXTT3=
EXTT4=
EXTT5=
EXTT6=
EXTT7=
EXTT8=
EXTT9=
EXTT10=
EXTT11=
EXTT12=
EXTT13=
PLAYORDER=
